<svg width="66" height="66" viewBox="0 0 66 66" fill="none" xmlns="http://www.w3.org/2000/svg">
<rect width="66" height="66" rx="10" fill="#F6F8FF"/>
<path d="M39.9007 41.8111V36.3804H25.5519V41.8111L32.7263 48.0178L39.9007 41.8111Z" fill="#E6AF78" fill-opacity="0.56"/>
<path d="M50.9942 44.3518L41.1299 42.0929C40.9809 42.0588 40.8439 42.0008 40.7157 41.9306L32.7262 46.4664L25.0483 41.7112C24.8496 41.8933 24.6028 42.0287 24.3226 42.0929L14.4584 44.3519C13.018 44.6817 12 45.9326 12 47.3727V53.449C12 54.3061 12.7138 55.0007 13.5943 55.0007H51.858C52.7386 55.0007 53.4523 54.306 53.4523 53.449V47.3727C53.4525 45.9325 52.4345 44.6815 50.9942 44.3518Z" fill="#1B4571"/>
<path d="M25.5519 36.3804V42.1104C34.5897 45.2795 39.9007 37.348 39.9007 37.348V36.3804H25.5519V36.3804Z" fill="#D29B6E" fill-opacity="0.34"/>
<path d="M22.3644 18.5367L23.059 33.4105C23.1239 34.8 23.8239 36.0886 24.9672 36.9231L28.2633 39.3291C29.0912 39.9333 30.0982 40.2601 31.1331 40.2601H34.3218C35.3567 40.2601 36.3637 39.9334 37.1916 39.3291L40.4877 36.9231C41.631 36.0885 42.331 34.8001 42.3959 33.4105L43.0905 18.5367H22.3644Z" fill="#F7DECE"/>
<path d="M30.3361 21.6401C33.5247 21.6401 38.3076 20.8643 39.4421 18.5367H22.3644L23.059 33.4105C23.1239 34.8 23.8239 36.0885 24.9673 36.9231L28.2634 39.3291C29.0913 39.9333 30.0983 40.2601 31.1332 40.2601H32.7275C31.1332 40.2601 27.9445 37.1567 27.9445 33.2776C27.9445 31.3804 27.9445 26.2951 27.9445 23.9676C27.9445 23.1918 28.7417 21.6401 30.3361 21.6401Z" fill="#F2D4B7"/>
<path d="M17.8549 49.9635L12.6894 45.4475C12.2565 45.9809 12.0027 46.6521 12.0027 47.3707V53.4471C12.0027 54.3041 12.7165 54.9987 13.597 54.9987H19.1772V52.8494C19.1771 51.7484 18.6964 50.6992 17.8549 49.9635Z" fill="#1B4571"/>
<path d="M47.6023 49.9635L52.7678 45.4475C53.2007 45.9809 53.4545 46.6521 53.4545 47.3707V53.4471C53.4545 54.3041 52.7407 54.9987 51.8602 54.9987H46.28V52.8494C46.28 51.7484 46.7607 50.6992 47.6023 49.9635Z" fill="#1B4571"/>
<path d="M25.4385 40.085L32.7249 46.4673C32.7249 46.4673 30.6843 47.4698 28.1661 49.4906C27.6467 49.9073 26.8609 49.7385 26.5823 49.142L23.159 41.8123L24.242 40.2314C24.5115 39.8376 25.0771 39.7686 25.4385 40.085Z" fill="#1B4571"/>
<path d="M40.0112 40.085L32.7248 46.4673C32.7248 46.4673 34.7654 47.4698 37.2835 49.4906C37.803 49.9073 38.5888 49.7385 38.8674 49.142L42.2907 41.8123L41.2077 40.2314C40.9381 39.8376 40.3724 39.7686 40.0112 40.085Z" fill="#1B4571"/>
<path d="M37.5568 13.3972L38.3041 18.5371C41.7154 19.2011 42.2071 24.4115 42.2779 25.8997C42.2907 26.1698 42.3793 26.4306 42.5298 26.6578L43.8315 28.6229C43.8315 28.6229 43.386 25.374 45.4258 23.192C45.4258 23.192 46.1263 10.2938 37.5568 13.3972Z" fill="#404040"/>
<path d="M23.1279 12.0066L24.3069 12.7905C18.976 16.6212 19.9723 23.1915 19.9723 23.1915C21.5666 24.7432 21.5666 28.6224 21.5666 28.6224L23.1609 27.0707C23.1609 27.0707 22.5457 22.5884 25.5524 20.8641C28.3424 19.2639 30.7837 20.0882 33.2749 20.0882C39.9511 20.0882 41.8195 17.6395 41.4956 14.6574C41.328 13.1144 38.904 9.90016 32.7269 10.0024C30.234 10.0436 25.5526 10.7782 23.1279 12.0066Z" fill="#242424"/>
</svg>
